<svg width="20" height="20" viewBox="0 0 20 20" fill="none" xmlns="http://www.w3.org/2000/svg">
<rect width="20" height="20" rx="10" fill="#32936F" fill-opacity="0.24"/>
<path d="M14.4735 6.80657C14.4115 6.74409 14.3378 6.69449 14.2565 6.66065C14.1753 6.6268 14.0881 6.60938 14.0001 6.60938C13.9121 6.60938 13.825 6.6268 13.7437 6.66065C13.6625 6.69449 13.5888 6.74409 13.5268 6.80657L8.56013 11.7799L6.47346 9.68657C6.40911 9.62441 6.33315 9.57554 6.24992 9.54274C6.16668 9.50993 6.0778 9.49385 5.98834 9.49539C5.89889 9.49694 5.81062 9.51609 5.72857 9.55176C5.64651 9.58742 5.57229 9.63889 5.51013 9.70324C5.44797 9.76759 5.39909 9.84355 5.36629 9.92679C5.33349 10.01 5.3174 10.0989 5.31895 10.1884C5.3205 10.2778 5.33965 10.3661 5.37531 10.4481C5.41097 10.5302 5.46245 10.6044 5.5268 10.6666L8.0868 13.2266C8.14877 13.2891 8.22251 13.3387 8.30375 13.3725C8.38498 13.4063 8.47212 13.4238 8.56013 13.4238C8.64814 13.4238 8.73527 13.4063 8.81651 13.3725C8.89775 13.3387 8.97149 13.2891 9.03346 13.2266L14.4735 7.78657C14.5411 7.72415 14.5951 7.64838 14.6321 7.56404C14.669 7.47971 14.6881 7.38864 14.6881 7.29657C14.6881 7.20451 14.669 7.11344 14.6321 7.0291C14.5951 6.94477 14.5411 6.869 14.4735 6.80657Z" fill="#32936F"/>
</svg>
