<svg width="24" height="24" viewBox="0 0 24 24" fill="none" xmlns="http://www.w3.org/2000/svg">
  <path d="M9.34933 14.8574C5.38553 14.8574 2 15.4697 2 17.9171C2 20.3663 5.364 20.9997 9.34933 20.9997C13.3131 20.9997 16.6987 20.3874 16.6987 17.9401C16.6987 15.4908 13.3347 14.8574 9.34933 14.8574Z" fill="black"/>
  <path opacity="0.4" d="M9.34935 12.5248C12.049 12.5248 14.2124 10.4062 14.2124 7.76241C14.2124 5.11865 12.049 3 9.34935 3C6.65072 3 4.48633 5.11865 4.48633 7.76241C4.48633 10.4062 6.65072 12.5248 9.34935 12.5248Z" fill="black"/>
  <path opacity="0.4" d="M16.1734 7.84922C16.1734 9.19553 15.7605 10.4518 15.0364 11.4953C14.9611 11.6026 15.0276 11.7473 15.1587 11.7703C15.3407 11.8 15.5276 11.8182 15.7184 11.822C17.6167 11.8709 19.3202 10.6741 19.7908 8.87165C20.4885 6.19723 18.4415 3.7959 15.8339 3.7959C15.5511 3.7959 15.2801 3.82465 15.0159 3.87735C14.9797 3.88501 14.9405 3.90226 14.921 3.93293C14.8955 3.97221 14.9141 4.023 14.9395 4.05654C15.7233 5.13263 16.1734 6.44253 16.1734 7.84922Z" fill="black"/>
  <path d="M21.7791 15.1697C21.4317 14.4444 20.5932 13.947 19.3172 13.7027C18.7155 13.559 17.0853 13.3548 15.5697 13.3836C15.5472 13.3865 15.5344 13.4018 15.5325 13.4114C15.5295 13.4267 15.5364 13.4497 15.5658 13.466C16.2663 13.8052 18.9738 15.2809 18.6333 18.3932C18.6186 18.5293 18.7292 18.6443 18.8671 18.6251C19.5335 18.5322 21.2478 18.1709 21.7791 17.0479C22.0736 16.4538 22.0736 15.7638 21.7791 15.1697Z" fill="black"/>
</svg>