<svg width="20" height="18" viewBox="0 0 20 18" fill="none" xmlns="http://www.w3.org/2000/svg">
<g id="2 User">
<path id="Fill 1" d="M7.34933 11.8577C3.38553 11.8577 0 12.47 0 14.9173C0 17.3665 3.364 17.9999 7.34933 17.9999C11.3131 17.9999 14.6987 17.3876 14.6987 14.9403C14.6987 12.4911 11.3347 11.8577 7.34933 11.8577Z" fill="white"/>
<path id="Fill 3" opacity="0.4" d="M7.34935 9.52482C10.049 9.52482 12.2124 7.40617 12.2124 4.76241C12.2124 2.11865 10.049 0 7.34935 0C4.65072 0 2.48633 2.11865 2.48633 4.76241C2.48633 7.40617 4.65072 9.52482 7.34935 9.52482Z" fill="white"/>
<path id="Fill 5" opacity="0.4" d="M14.1735 4.84873C14.1735 6.19505 13.7606 7.45129 13.0365 8.4948C12.9612 8.60212 13.0277 8.74682 13.1588 8.76981C13.3408 8.79952 13.5277 8.81773 13.7185 8.82156C15.6168 8.87043 17.3203 7.6736 17.791 5.87116C18.4886 3.19674 16.4416 0.79541 13.834 0.79541C13.5512 0.79541 13.2802 0.824157 13.016 0.87686C12.9798 0.884526 12.9406 0.901774 12.9211 0.932437C12.8956 0.971725 12.9142 1.02251 12.9397 1.05605C13.7234 2.13214 14.1735 3.44205 14.1735 4.84873Z" fill="white"/>
<path id="Fill 7" d="M19.7792 12.1693C19.4318 11.4439 18.5933 10.9465 17.3174 10.7022C16.7156 10.5585 15.0854 10.3544 13.5698 10.3831C13.5473 10.386 13.5346 10.4013 13.5326 10.4109C13.5297 10.4262 13.5365 10.4492 13.5659 10.4655C14.2665 10.8047 16.9739 12.2804 16.6334 15.3927C16.6187 15.5288 16.7293 15.6438 16.8673 15.6246C17.5336 15.5317 19.2479 15.1704 19.7792 14.0474C20.0737 13.4533 20.0737 12.7634 19.7792 12.1693Z" fill="white"/>
</g>
</svg>
