<svg width="14" height="14" viewBox="0 0 14 14" fill="none" xmlns="http://www.w3.org/2000/svg">
<g id="Home">
<path id="Home_2" d="M5.0959 12.8547V10.8101C5.09589 10.292 5.51719 9.87106 6.03904 9.8678H7.95515C8.47933 9.8678 8.90426 10.2897 8.90426 10.8101V12.8487C8.90425 13.2981 9.26943 13.6633 9.72204 13.6666H11.0293C11.6398 13.6681 12.2259 13.4284 12.6582 13.0004C13.0905 12.5723 13.3334 11.9911 13.3334 11.3849V5.57715C13.3334 5.08751 13.1148 4.62306 12.7365 4.30892L8.2954 0.782764C7.51909 0.166 6.41033 0.185924 5.65701 0.830175L1.31142 4.30892C0.915242 4.6138 0.67845 5.07963 0.666748 5.57715V11.379C0.666748 12.6424 1.69834 13.6666 2.97086 13.6666H4.24827C4.4662 13.6681 4.67574 13.5833 4.8304 13.4309C4.98505 13.2784 5.07203 13.071 5.07203 12.8547H5.0959Z" fill="#5570F1"/>
</g>
</svg>
