<svg width="16" height="18" viewBox="0 0 16 18" fill="none" xmlns="http://www.w3.org/2000/svg">
<g id="Notification">
<path id="Fill 1" d="M14.4747 8.70453C13.8659 7.99366 13.5893 7.37763 13.5893 6.33104V5.97519C13.5893 4.61136 13.2754 3.73264 12.593 2.85391C11.5411 1.48924 9.7704 0.666748 8.03694 0.666748H7.96323C6.26621 0.666748 4.55097 1.45147 3.48091 2.76075C2.76119 3.6571 2.41085 4.57359 2.41085 5.97519V6.33104C2.41085 7.37763 2.15245 7.99366 1.52549 8.70453C1.06417 9.22824 0.916748 9.90134 0.916748 10.6298C0.916748 11.3592 1.1561 12.0499 1.63647 12.6114C2.26343 13.2845 3.1488 13.7142 4.05321 13.7889C5.36262 13.9383 6.67203 13.9945 8.0005 13.9945C9.32813 13.9945 10.6375 13.9005 11.9478 13.7889C12.8514 13.7142 13.7367 13.2845 14.3637 12.6114C14.8432 12.0499 15.0834 11.3592 15.0834 10.6298C15.0834 9.90134 14.936 9.22824 14.4747 8.70453Z" fill="#5570F1"/>
<path id="Fill 4" opacity="0.4" d="M9.67396 15.0238C9.25737 14.9348 6.71888 14.9348 6.30229 15.0238C5.94616 15.106 5.56104 15.2974 5.56104 15.717C5.58174 16.1173 5.81613 16.4707 6.14079 16.6948L6.13996 16.6956C6.55987 17.0229 7.05266 17.2311 7.56864 17.3058C7.8436 17.3435 8.12354 17.3418 8.40845 17.3058C8.9236 17.2311 9.41639 17.0229 9.8363 16.6956L9.83547 16.6948C10.1601 16.4707 10.3945 16.1173 10.4152 15.717C10.4152 15.2974 10.0301 15.106 9.67396 15.0238Z" fill="#5570F1"/>
</g>
</svg>
