<?xml version="1.0" encoding="UTF-8"?>
<svg version="1.1" xmlns="http://www.w3.org/2000/svg" width="1414" height="1414">
  <path
    d="M0 0 C0.33 0.66 0.66 1.32 1 2 C0.32250977 3.70141602 0.32250977 3.70141602 -0.80859375 5.75390625 C-1.22181885 6.51719238 -1.63504395 7.28047852 -2.06079102 8.06689453 C-2.74226196 9.30221924 -2.74226196 9.30221924 -3.4375 10.5625 C-6.8292274 16.84233288 -10.08553667 23.13792003 -13.0625 29.625 C-15.70123853 35.35237564 -18.51030348 40.94779741 -21.5 46.5 C-24.89453051 52.8081692 -28.03426819 59.19438613 -31.05078125 65.69091797 C-35.37093256 74.98481491 -39.9016758 84.1752676 -44.79346943 93.18256569 C-48.39418635 99.82526265 -51.73159 106.55769387 -54.96020508 113.38916016 C-60.52794045 125.09531747 -66.29001011 136.69844434 -72.10428429 148.28373337 C-73.87782793 151.8177611 -75.6487215 155.3531103 -77.41889954 158.88882446 C-81.1726693 166.38543504 -84.92988909 173.88031421 -88.6875 181.375 C-92.75937848 189.49654826 -96.83057661 197.61843411 -100.8978532 205.74228823 C-102.92632904 209.79356801 -104.95793354 213.84326939 -106.99015808 217.89266968 C-112.27259565 228.43341664 -117.48725166 238.99279626 -122.445755 249.69021606 C-124.33110661 253.70509561 -126.36401417 257.61450048 -128.5 261.5 C-131.51692152 267.09017812 -134.33863756 272.73227995 -137 278.5 C-139.60419962 284.14125162 -142.36085529 289.6576678 -145.3125 295.125 C-149.40930767 302.72595039 -153.16247814 310.46960327 -156.84301758 318.27978516 C-159.29652509 323.47747584 -161.8050555 328.64373869 -164.38256836 333.78100586 C-165.09927546 335.21201232 -165.81594239 336.64303891 -166.53257751 338.07408142 C-166.92582655 338.8589839 -167.31907558 339.64388638 -167.72424126 340.45257378 C-170.12598768 345.2483644 -172.52354773 350.04624886 -174.921875 354.84375 C-176.02765248 357.05534694 -177.13344726 359.26693522 -178.23925781 361.47851562 C-178.81115845 362.62231689 -179.38305908 363.76611816 -179.97229004 364.94458008 C-215.76074219 436.52148437 -215.76074219 436.52148437 -217.4453125 439.89056301 C-218.51601691 442.03201249 -219.58665719 444.17349404 -220.65722656 446.31501102 C-222.93304665 450.86730194 -225.20951447 455.4192616 -227.48925781 459.96958923 C-227.86056824 460.71106453 -228.23187866 461.45253983 -228.61444092 462.21648407 C-229.27843237 463.54225451 -229.94281899 464.86782715 -230.60772705 466.19313812 C-232.82091799 470.61321799 -234.94053705 475.06923263 -237 479.5625 C-239.48972617 484.92640894 -242.10961015 490.18168647 -244.9375 495.375 C-248.36714419 501.67562095 -251.48508955 508.09399807 -254.50366211 514.60107422 C-256.67097717 519.25701692 -258.91925939 523.86609527 -261.22070312 528.45727539 C-261.94190236 529.89723828 -262.66304847 531.33722777 -263.38415527 532.77723694 C-263.79413254 533.59559587 -264.2041098 534.41395481 -264.62651062 535.2571125 C-267.05360551 540.1040726 -269.47697429 544.95289596 -271.90085888 549.80146205 C-273.52173546 553.04365661 -275.14284041 556.28573698 -276.76391602 559.52783203 C-277.45069481 560.90138701 -278.13747254 562.27494252 -278.82424927 563.64849854 C-292.27474976 590.54949951 -305.72525024 617.45050049 -319.17575073 644.35150146 C-319.51811925 645.03623978 -319.86048777 645.72097809 -320.21323109 646.42646605 C-320.88964334 647.779288 -321.56605967 649.13210791 -322.24248028 650.48492569 C-323.83435234 653.6686262 -325.42616177 656.85235799 -327.01780701 660.03617191 C-329.5515376 665.10425468 -332.08561888 670.17215569 -334.62353516 675.23814392 C-334.99925156 675.98843117 -335.37496796 676.73871841 -335.7620697 677.51174164 C-336.69278717 679.37004255 -337.6240695 681.22806054 -338.55541992 683.08604431 C-340.43715634 686.88181626 -342.23491353 690.71149339 -344 694.5625 C-346.48972617 699.92640894 -349.10961015 705.18168647 -351.9375 710.375 C-355.41656834 716.76641836 -358.55581463 723.2868845 -361.64208984 729.87573242 C-364.6263223 736.24016968 -367.72572175 742.53747803 -370.89134216 748.8132782 C-372.71941391 752.44030763 -374.53841115 756.07178218 -376.35351562 759.70532227 C-380.08702899 767.17629656 -383.82530552 774.6448813 -387.56445312 782.11303711 C-393.67305526 794.31395504 -399.77967518 806.51586386 -405.88509369 818.71837521 C-409.56211913 826.06727115 -413.2399039 833.41578529 -416.91943359 840.76342773 C-420.15567603 847.22587765 -423.39046312 853.68905367 -426.62357855 860.1530686 C-428.32512926 863.55488134 -430.02735005 866.95635454 -431.7313385 870.35694695 C-441.32373314 889.49530482 -441.32373314 889.49530482 -450.51441956 908.82878113 C-452.35436132 912.75644325 -454.34692251 916.57666304 -456.4375 920.375 C-460.10239737 927.1610177 -463.43665942 934.06537211 -466.69506836 941.05419922 C-468.99215259 945.95244501 -471.40952574 950.75090446 -474 955.5 C-477.41053417 961.75816463 -480.50482484 968.13661658 -483.50390625 974.6015625 C-485.71419318 979.34989754 -488.00919782 984.05145995 -490.35742188 988.73291016 C-490.70023193 989.41745553 -491.04304199 990.1020009 -491.39624023 990.80729008 C-492.16986451 992.35201862 -492.94371756 993.89663261 -493.71775818 995.44115257 C-495.59358365 999.18455816 -497.4678459 1002.92874599 -499.34229279 1006.67284203 C-500.97446549 1009.93292449 -502.60685847 1013.19289661 -504.23925781 1016.4528656 C-508.54324404 1025.04863107 -512.84527892 1033.64537285 -517.14703369 1042.24225521 C-520.40031956 1048.7436733 -523.65436565 1055.24470887 -526.91015625 1061.74487305 C-529.77723958 1067.46899254 -532.64285877 1073.19384234 -535.50680923 1078.91952997 C-537.01273976 1081.93010481 -538.51955446 1084.94022844 -540.02770996 1087.94968987 C-545.98425311 1099.83676979 -551.9062278 1111.7290415 -557.50292969 1123.7905426 C-558.6337537 1126.21483187 -559.78498255 1128.61732137 -561 1131 C-561.66 1131 -562.32 1131 -563 1131 C-563.78479736 1129.42255005 -563.78479736 1129.42255005 -564.58544922 1127.81323242 C-576.34499246 1104.05267145 -576.34499246 1104.05267145 -588.55957031 1080.52514648 C-592.40800892 1073.30048581 -596.0304722 1065.96548915 -599.67260742 1058.63525391 C-602.45585523 1053.04711632 -605.28326858 1047.49295494 -608.25 1042 C-611.26052027 1036.42588207 -614.12022461 1030.79528875 -616.93066406 1025.11914062 C-619.68858153 1019.57108075 -622.56490844 1014.0915224 -625.50366211 1008.63720703 C-628.36828664 1003.2890912 -631.08076819 997.86737554 -633.78515625 992.43707275 C-635.90967254 988.17319114 -638.05166175 983.91890569 -640.21398926 979.67407227 C-641.62720856 976.89871194 -643.03355333 974.11989412 -644.43945312 971.34082031 C-645.15808436 969.92407126 -645.87952759 968.50874568 -646.60351562 967.09472656 C-647.67025376 965.00956614 -648.72670002 962.9194701 -649.78125 960.828125 C-650.10613403 960.19900208 -650.43101807 959.56987915 -650.76574707 958.92169189 C-652.43018611 955.59452128 -653 953.81940836 -653 950 C-651.51251789 947.540736 -649.9914455 945.25976111 -648.3125 942.9375 C-647.29110325 941.48998072 -646.27029341 940.04204718 -645.25 938.59375 C-644.71375 937.83835937 -644.1775 937.08296875 -643.625 936.3046875 C-640.97528824 932.54668284 -638.3983385 928.73959138 -635.8125 924.9375 C-630.91442396 917.76402691 -625.9667057 910.62609147 -621 903.5 C-612.64785071 891.5144971 -604.40072366 879.45970776 -596.17578125 867.38671875 C-594.86722781 865.46611837 -593.55863407 863.54554544 -592.25 861.625 C-591.6094165 860.68479004 -590.96883301 859.74458008 -590.30883789 858.77587891 C-586.32360469 852.93031793 -582.31376251 847.10330711 -578.27734375 841.29296875 C-575.47574928 837.25179732 -572.70954067 833.18646842 -569.9375 829.125 C-564.99685059 821.88958939 -560.01009078 814.68747958 -555 807.5 C-548.44204193 798.09113009 -541.9466001 788.64157671 -535.48193359 779.16845703 C-532.7148711 775.11951978 -529.93253578 771.08109417 -527.15185547 767.04150391 C-524.75779838 763.56181977 -522.36909106 760.07860782 -519.98828125 756.58984375 C-514.07530679 747.92637059 -508.12475394 739.29115294 -502.125 730.6875 C-494.93143136 720.36918183 -487.832174 709.98900832 -480.75976562 699.58740234 C-473.27315772 688.57976215 -465.73867629 677.60769236 -458.125 666.6875 C-450.93455969 656.37344276 -443.83804427 645.99778798 -436.76855469 635.60058594 C-428.88394331 624.00659361 -420.93877328 612.4605872 -412.87866211 600.98779297 C-409.22415101 595.77672135 -405.65945146 590.51730348 -402.15625 585.203125 C-399.33235674 581.0082111 -396.41372027 576.88281986 -393.5 572.75 C-388.1410905 565.14566012 -382.94341886 557.44726812 -377.8125 549.6875 C-372.97221336 542.37166012 -368.03868435 535.17648719 -362.7890625 528.14916992 C-359.40105988 523.5994029 -356.23930801 518.93137637 -353.12402344 514.19189453 C-349.14408038 508.15993874 -345.01308447 502.23672944 -340.875 496.3125 C-336.14691948 489.5404473 -331.45541462 482.75686185 -326.90625 475.86328125 C-323.15018916 470.22149314 -319.28056942 464.6566281 -315.43212891 459.07763672 C-313.54075452 456.33375742 -311.65407273 453.58666755 -309.76733398 450.83959961 C-306.0640542 445.44799309 -302.3531192 440.06197841 -298.625 434.6875 C-295.03951661 429.51551953 -291.48550599 424.32274308 -287.9375 419.125 C-283.03934068 411.95145462 -278.09397816 404.81214665 -273.125 397.6875 C-267.0808778 389.0197422 -261.10000718 380.31123236 -255.15722656 371.57373047 C-251.22807531 365.79722919 -247.27142731 360.04193744 -243.28515625 354.3046875 C-240.99324721 350.99883215 -238.7272993 347.67544056 -236.46020508 344.35253906 C-231.25272434 336.71994173 -225.99953153 329.12275353 -220.6875 321.5625 C-216.3200968 315.34556861 -212.0218625 309.09851746 -207.8359375 302.7578125 C-205.49939133 299.24802187 -203.09765668 295.78554189 -200.69042969 292.32397461 C-197.41373471 287.60841295 -194.17403517 282.86818964 -190.9375 278.125 C-186.03947361 270.95136431 -181.09393993 263.81217136 -176.125 256.6875 C-168.89833114 246.32284398 -161.77152161 235.89258251 -154.66503906 225.4453125 C-147.92336653 215.54434591 -141.09908535 205.70187752 -134.25 195.875 C-127.59278396 186.32176054 -121.01338467 176.7177995 -114.46484375 167.08984375 C-110.09659201 160.66763788 -105.69447286 154.26896454 -101.28857422 147.87255859 C-100.00426266 146.0061945 -98.72244649 144.13814195 -97.44140625 142.26953125 C-92.07709323 134.44825028 -86.67364906 126.65526094 -81.25 118.875 C-74.02021699 108.49933536 -66.88308475 98.06286054 -59.77294922 87.60498047 C-56.44676143 82.71783868 -53.10610842 77.84060128 -49.76611328 72.96289062 C-47.12887815 69.11138316 -44.49340473 65.25871216 -41.86328125 61.40234375 C-35.23888103 51.69473504 -28.55588944 42.02968007 -21.83666992 32.38745117 C-16.18976991 24.28196187 -10.58292604 16.14965263 -5 8 C-14.17731562 17.07381206 -22.94032844 26.50273618 -30.9921875 36.58984375 C-33.47852805 39.57441985 -36.20369555 42.22716229 -38.98828125 44.9296875 C-41.2145298 47.22077824 -43.1915293 49.63094554 -45.1875 52.125 C-49.85454316 57.94060491 -54.89484386 63.34307868 -59.9921875 68.77734375 C-62.8492305 71.82538439 -65.61843793 74.93860532 -68.34765625 78.1015625 C-70.26447425 80.30386403 -72.22510695 82.46321942 -74.1875 84.625 C-77.84202299 88.67107903 -81.40259539 92.78738927 -84.9375 96.9375 C-89.4527647 102.23659516 -94.06420336 107.42296265 -98.76953125 112.5546875 C-101.27866515 115.3055068 -103.72421625 118.10584549 -106.1640625 120.91796875 C-108.36632979 123.41543357 -110.62140035 125.861277 -112.875 128.3125 C-116.27533563 132.03274581 -119.52664393 135.82450753 -122.6875 139.75 C-125.17106329 142.8294445 -127.6542244 145.75235459 -130.5 148.5 C-133.28505422 151.18967565 -135.70498616 154.03968272 -138.125 157.0625 C-142.81500537 162.89288339 -147.87516404 168.32214786 -152.9921875 173.77734375 C-155.84546778 176.82137013 -158.61188009 179.92966877 -161.3359375 183.08984375 C-163.31540126 185.36204511 -165.3458317 187.58459872 -167.375 189.8125 C-170.55759788 193.33010818 -173.59117962 196.92747051 -176.5625 200.625 C-179.236462 203.93385419 -181.94723257 207.03790883 -185 210 C-187.97195602 212.88437382 -190.59951674 215.89119942 -193.1875 219.125 C-197.85851809 224.94555807 -202.90431605 230.35210864 -208.00390625 235.79296875 C-212.36990293 240.45191319 -216.53175833 245.27070803 -220.6640625 250.13671875 C-226.14965715 256.58461917 -231.71742115 262.91561462 -237.49658203 269.10205078 C-241.65100651 273.57032302 -245.61877884 278.18002975 -249.5637207 282.83325195 C-252.85388767 286.70096255 -256.23017513 290.46884454 -259.6875 294.1875 C-263.16641948 297.9413341 -266.48235447 301.76003288 -269.6875 305.75 C-272.31850881 309.02123654 -274.98770166 312.07682291 -278 315 C-280.99211089 317.90376116 -283.64049438 320.93500468 -286.25 324.1875 C-290.67044987 329.69394274 -295.40189306 334.84067732 -300.21484375 340 C-302.97346339 342.95876022 -305.64611326 345.98395085 -308.29296875 349.04296875 C-310.33633431 351.3855915 -312.41680859 353.69273422 -314.5 356 C-317.76704335 359.62023723 -320.99520776 363.26983565 -324.1953125 366.94921875 C-326.22958141 369.26088797 -328.3022231 371.5353143 -330.375 373.8125 C-333.57652433 377.35160002 -336.63146063 380.97103106 -339.625 384.6875 C-342.12973231 387.78591453 -344.6339111 390.73296947 -347.5 393.5 C-350.26489079 396.17041844 -352.66368565 398.99595992 -355.0625 402 C-358.84388307 406.70572115 -362.85065734 411.11675916 -367 415.5 C-371.78914369 420.56246479 -376.30167562 425.73118723 -380.65234375 431.1796875 C-384.57375304 435.8905985 -388.80369393 440.31240109 -392.99609375 444.78125 C-395.82371009 447.79783854 -398.56052023 450.88154577 -401.26171875 454.01171875 C-403.47256489 456.54052928 -405.73596443 459.01872564 -408 461.5 C-412.98575729 466.97235522 -417.88427147 472.50528894 -422.67578125 478.1484375 C-428.1561913 484.59358089 -433.72116611 490.91962349 -439.49658203 497.10205078 C-443.65100651 501.57032302 -447.61877884 506.18002975 -451.5637207 510.83325195 C-454.85389441 514.70097048 -458.23033756 518.46868827 -461.6875 522.1875 C-465.03654232 525.79143772 -468.23951476 529.46843359 -471.3125 533.3125 C-475.57109146 538.61089118 -480.17734826 543.51596849 -484.84472656 548.45019531 C-489.0015677 552.86754081 -492.86667485 557.43875636 -496.65234375 562.1796875 C-500.5725735 566.88918148 -504.80119046 571.30970509 -508.9921875 575.77734375 C-511.8422557 578.81794331 -514.60488811 581.92348424 -517.328125 585.078125 C-519.35758073 587.41105074 -521.427647 589.70511245 -523.5 592 C-526.76704335 595.62023723 -529.99520776 599.26983565 -533.1953125 602.94921875 C-535.22958141 605.26088797 -537.3022231 607.5353143 -539.375 609.8125 C-542.55759788 613.33010818 -545.59117962 616.92747051 -548.5625 620.625 C-551.236462 623.93385419 -553.94723257 627.03790883 -557 630 C-559.99211089 632.90376116 -562.64049438 635.93500468 -565.25 639.1875 C-569.67044987 644.69394274 -574.40189306 649.84067732 -579.21484375 655 C-581.97346339 657.95876022 -584.64611326 660.98395085 -587.29296875 664.04296875 C-589.33633431 666.3855915 -591.41680859 668.69273422 -593.5 671 C-596.77072923 674.62432158 -600.0016922 678.27883178 -603.20703125 681.9609375 C-605.17841043 684.20289813 -607.18162691 686.41385803 -609.1875 688.625 C-612.82284521 692.64918518 -616.36133312 696.74511773 -619.875 700.875 C-624.21635309 705.97383957 -628.65600858 710.96119796 -633.20214844 715.87792969 C-636.28641992 719.21379506 -639.30181665 722.5984906 -642.27734375 726.03125 C-644.22159136 728.25324727 -646.20336964 730.43855223 -648.1875 732.625 C-651.84202299 736.67107903 -655.40259539 740.78738927 -658.9375 744.9375 C-663.45156671 750.2351892 -668.06188791 755.42011261 -672.765625 760.55078125 C-675.29402372 763.32229524 -677.76184 766.14127003 -680.22265625 768.97265625 C-683.05311616 772.20124678 -685.93961207 775.37913175 -688.81640625 778.56640625 C-690.70848685 780.67511146 -692.57905758 782.79919801 -694.4375 784.9375 C-697.19784541 788.11221597 -700.02792558 791.21537436 -702.875 794.3125 C-706.27533563 798.03274581 -709.52664393 801.82450753 -712.6875 805.75 C-715.17106329 808.8294445 -717.6542244 811.75235459 -720.5 814.5 C-723.28505422 817.18967565 -725.70498616 820.03968272 -728.125 823.0625 C-732.25585245 828.20139324 -736.66984984 832.99738437 -741.19067383 837.79370117 C-745.33418485 842.21551224 -749.17012413 846.82277806 -752.95703125 851.5546875 C-755.45241679 854.54151608 -758.17835139 857.20280522 -760.96875 859.91015625 C-764.12861372 863.16116989 -766.90928766 866.70193472 -769.74609375 870.234375 C-773.03619531 874.27144936 -776.50357578 878.1415482 -780 882 C-781.20212659 878.39362024 -780.70400493 877.41614162 -779.48046875 873.890625 C-779.12291504 872.84261719 -778.76536133 871.79460938 -778.39697266 870.71484375 C-777.99784668 869.57144531 -777.5987207 868.42804687 -777.1875 867.25 C-776.34363569 864.77652444 -775.50124253 862.30254659 -774.66015625 859.828125 C-774.44059265 859.18532593 -774.22102905 858.54252686 -773.99481201 857.88024902 C-771.62875519 850.94478671 -769.36954831 843.97565563 -767.125 837 C-766.81986984 836.05374756 -766.81986984 836.05374756 -766.50857544 835.08837891 C-763.99234627 827.28311484 -761.51231969 819.46698603 -759.0625 811.640625 C-758.81676239 810.85602905 -758.57102478 810.07143311 -758.31784058 809.26306152 C-757.12588603 805.45529382 -755.93730354 801.64652499 -754.75439453 797.8359375 C-754.31851567 796.43734975 -753.88216773 795.03890809 -753.4453125 793.640625 C-753.23762238 792.9746228 -753.02993225 792.30862061 -752.81594849 791.62243652 C-751.28934466 786.78167164 -749.57210063 782.03830531 -747.69482422 777.32324219 C-746.4275281 773.08585993 -746.71424887 770.61383575 -748.58203125 766.6015625 C-749.31718373 765.2713997 -750.06135145 763.94619571 -750.8125 762.625 C-754.53141418 755.84576807 -758.0010895 748.9873088 -761.3125 742 C-761.77197021 741.03247803 -762.23144043 740.06495605 -762.70483398 739.06811523 C-763.65555261 737.06359196 -764.6053285 735.05862132 -765.55419922 733.05322266 C-772.61030035 718.15224313 -779.80195961 703.32864115 -787.20996094 688.59936523 C-791.23418703 680.58044975 -795.12987424 672.50702313 -798.97680664 664.40185547 C-802.51126051 656.97327225 -806.17558119 649.61583202 -809.87548828 642.26855469 C-813.64480997 634.76204762 -817.27094839 627.19240695 -820.875 619.60546875 C-824.00675366 613.03056548 -827.2245401 606.50439338 -830.5 600 C-834.7368616 591.58645949 -838.83308499 583.11415915 -842.875 574.60546875 C-846.00675366 568.03056548 -849.2245401 561.50439338 -852.5 555 C-856.7368616 546.58645949 -860.83308499 538.11415915 -864.875 529.60546875 C-868.00675638 523.03055977 -871.2247657 516.5045106 -874.5 510 C-881.00271254 497.07681444 -887.24974053 484.03188382 -893.375 470.92578125 C-896.88009251 463.43865652 -900.45336937 456.02894804 -904.375 448.75 C-909.97301874 438.35525961 -914.9600323 427.67318906 -920 417 C-921.72653571 413.3529145 -923.45586486 409.70716693 -925.1875 406.0625 C-925.6004834 405.19286621 -926.0134668 404.32323242 -926.43896484 403.42724609 C-929.23119422 397.56567889 -932.10520862 391.75064394 -935.03198242 385.95532227 C-937.60451879 380.84191351 -940.06370363 375.67952772 -942.5 370.5 C-945.22224829 364.7131259 -947.9914516 358.95824888 -950.875 353.25 C-954.17796131 346.71093894 -957.35151583 340.11472007 -960.5 333.5 C-964.51947529 325.06306129 -968.6153759 316.67360907 -972.82470703 308.33007812 C-979.96302277 294.17800389 -987.04167106 280.00650473 -993.83520508 265.68530273 C-997.8247619 257.30211953 -1001.9815444 249.00715541 -1006.15307617 240.71337891 C-1010.26388713 232.52113304 -1014.24646717 224.2739697 -1018.1809082 215.99584961 C-1022.36040846 207.21159359 -1026.6906636 198.50845955 -1031.09960938 189.83740234 C-1031.85154596 188.35844274 -1032.6019724 186.87871431 -1033.35083008 185.39819336 C-1034.05544226 184.00527434 -1034.76341176 182.61404657 -1035.4753418 181.22485352 C-1037.04663012 178.11470345 -1038.1485269 175.40589242 -1039 172 C-957.49 172 -875.98 172 -792 172 C-782.97212838 190.05574324 -782.97212838 190.05574324 -779 198.5 C-775.73940677 205.39189343 -772.40602483 212.23771898 -768.96875 219.04296875 C-765.99327669 224.95806629 -763.17305473 230.94266248 -760.35522461 236.93408203 C-757.9701141 241.99123365 -755.52056043 247.00908952 -753 252 C-749.7181068 258.49841004 -746.57344061 265.05460787 -743.49609375 271.65234375 C-741.14715552 276.66281654 -738.70102118 281.62084569 -736.21875 286.56640625 C-732.07480807 294.82274003 -728.02454074 303.12243016 -724 311.4375 C-723.65138916 312.1567868 -723.30277832 312.87607361 -722.94360352 313.61715698 C-718.77245641 322.22402641 -714.63148729 330.84255214 -710.59155273 339.51196289 C-708.17849993 344.67203876 -705.63545345 349.75960964 -703.06835938 354.84399414 C-700.10698724 360.7313809 -697.28195463 366.67948234 -694.49633789 372.65185547 C-692.13594337 377.68669083 -689.67779167 382.66727087 -687.18359375 387.63671875 C-683.23943737 395.49516417 -679.38779785 403.3956624 -675.5625 411.3125 C-674.52155156 413.46390179 -673.48023021 415.61512281 -672.43887329 417.7663269 C-671.7198289 419.25172633 -671.00089641 420.73717992 -670.28207397 422.22268677 C-667.72858395 427.49873466 -665.16884589 432.77171806 -662.60546875 438.04296875 C-662.0635791 439.15731544 -662.0635791 439.15731544 -661.51074219 440.29417419 C-661.15061035 441.03474564 -660.79047852 441.77531708 -660.41943359 442.53833008 C-651.11053533 461.68130428 -641.8086991 480.82732202 -632.79248047 500.11035156 C-630.30789936 505.40060607 -627.70345043 510.62496617 -625.06933594 515.84204102 C-622.46320392 521.02321924 -619.96823154 526.25190485 -617.5 531.5 C-614.60172084 537.65563716 -611.66100312 543.78596944 -608.625 549.875 C-608.30337891 550.52275391 -607.98175781 551.17050781 -607.65039062 551.83789062 C-605.90444062 555.31871696 -604.05146947 558.6899603 -602 562 C-601.39079712 561.42838135 -601.39079712 561.42838135 -600.76928711 560.84521484 C-592.74002686 553.31222702 -584.70480336 545.78579259 -576.65258789 538.27734375 C-572.734623 534.62269813 -568.82417814 530.96017489 -564.91796875 527.29296875 C-559.46500619 522.17364826 -554.00312036 517.06540129 -548.5 512 C-541.64237159 505.68715138 -534.84679078 499.30885668 -528.05273438 492.92773438 C-517.67143416 483.17859707 -507.2736766 473.44723324 -496.85888672 463.73388672 C-494.36430588 461.40705284 -491.87047378 459.07941739 -489.37670898 456.75170898 C-488.12758768 455.5857866 -486.87840168 454.4199335 -485.62915039 453.25415039 C-482.47829737 450.31376531 -479.32825031 447.37252492 -476.1796875 444.4296875 C-470.34428095 438.9770286 -464.50176126 433.53308498 -458.625 428.125 C-452.85649165 422.81425301 -447.14529863 417.44389144 -441.44018555 412.06518555 C-436.17315346 407.10037474 -430.88875544 402.15471004 -425.59423828 397.21923828 C-421.05539727 392.98738361 -416.52576025 388.74583886 -412 384.5 C-406.77513834 379.59955371 -401.54770636 374.7018958 -396.3125 369.8125 C-395.39114258 368.95192993 -395.39114258 368.95192993 -394.45117188 368.07397461 C-390.87570525 364.73836062 -387.28567898 361.41927126 -383.68505859 358.11083984 C-379.27051741 354.05447644 -374.91234644 349.96978304 -370.71655273 345.68554688 C-368.96949073 343.97004182 -367.16052372 342.37029785 -365.3046875 340.7734375 C-361.08081299 337.09825612 -356.9996852 333.28967915 -352.9375 329.4375 C-351.43775066 328.02056798 -349.9377459 326.60390626 -348.4375 325.1875 C-347.69242188 324.48367188 -346.94734375 323.77984375 -346.1796875 323.0546875 C-342.34110584 319.43623956 -338.48245214 315.83936591 -334.61962891 312.24682617 C-331.27845747 309.13692547 -327.9543413 306.01068281 -324.6484375 302.86328125 C-323.92470947 302.17693604 -323.20098145 301.49059082 -322.45532227 300.78344727 C-321.05893767 299.45833762 -319.66601374 298.12956861 -318.27709961 296.79663086 C-317.32975952 295.89956421 -317.32975952 295.89956421 -316.36328125 294.984375 C-315.80938721 294.45553711 -315.25549316 293.92669922 -314.68481445 293.38183594 C-312.89030058 291.91002772 -311.10731 290.95778979 -309 290 C-309 289.34 -309 288.68 -309 288 C-307.49609375 286.51953125 -307.49609375 286.51953125 -305.4375 284.8125 C-302.6746132 282.46720242 -300.03320243 280.09170595 -297.5 277.5 C-295.1792691 275.1338946 -292.79406182 272.91045233 -290.28125 270.75 C-286.08685237 267.10253026 -282.03346664 263.32373782 -278 259.5 C-276.50274037 258.08579329 -275.00534121 256.67173428 -273.5078125 255.2578125 C-272.38101074 254.19288574 -272.38101074 254.19288574 -271.23144531 253.10644531 C-267.78673021 249.85469455 -264.33157751 246.61413185 -260.875 243.375 C-260.22635986 242.76688477 -259.57771973 242.15876953 -258.90942383 241.53222656 C-255.53353044 238.36866673 -252.15374568 235.20934496 -248.76953125 232.0546875 C-248.08455566 231.41611816 -247.39958008 230.77754883 -246.69384766 230.11962891 C-245.39063778 228.90522379 -244.08695374 227.69132725 -242.78271484 226.47802734 C-242.19828613 225.93355957 -241.61385742 225.3890918 -241.01171875 224.828125 C-240.50084717 224.3527832 -239.98997559 223.87744141 -239.46362305 223.38769531 C-238.4217202 222.39984281 -237.41583148 221.37340788 -236.43676758 220.32324219 C-235 219 -235 219 -233 219 C-233 218.34 -233 217.68 -233 217 C-231.49609375 215.51953125 -231.49609375 215.51953125 -229.4375 213.8125 C-226.6746132 211.46720242 -224.03320243 209.09170595 -221.5 206.5 C-219.18052798 204.13518492 -216.79675408 201.91299912 -214.28515625 199.75390625 C-210.06707221 196.08596497 -205.99307653 192.28338749 -201.9375 188.4375 C-200.43904786 187.02187522 -198.94034522 185.60651555 -197.44140625 184.19140625 C-196.69648926 183.48773926 -195.95157227 182.78407227 -195.18408203 182.05908203 C-191.92489964 178.98643009 -188.65134528 175.92933064 -185.375 172.875 C-184.77324951 172.31377441 -184.17149902 171.75254883 -183.55151367 171.17431641 C-181.01516966 168.80932406 -178.47798506 166.44523549 -175.94042969 164.08154297 C-174.54814386 162.7845528 -173.15605094 161.48735551 -171.76416016 160.18994141 C-170.45439135 158.96907812 -169.1441932 157.74867522 -167.83349609 156.52880859 C-167.24391113 155.97918457 -166.65432617 155.42956055 -166.046875 154.86328125 C-165.52963867 154.38157471 -165.01240234 153.89986816 -164.47949219 153.40356445 C-163.4317003 152.40954538 -162.41949175 151.37739313 -161.43457031 150.32104492 C-160 149 -160 149 -158 149 C-158 148.34 -158 147.68 -158 147 C-156.49609375 145.51953125 -156.49609375 145.51953125 -154.4375 143.8125 C-151.6746132 141.46720242 -149.03320243 139.09170595 -146.5 136.5 C-144.1792691 134.1338946 -141.79406182 131.91045233 -139.28125 129.75 C-135.08685237 126.10253026 -131.03346664 122.32373782 -127 118.5 C-125.50274037 117.08579329 -124.00534121 115.67173428 -122.5078125 114.2578125 C-121.75661133 113.54786133 -121.00541016 112.83791016 -120.23144531 112.10644531 C-116.78673039 108.85469472 -113.33161601 105.61409052 -109.875 102.375 C-108.88790039 101.44977539 -108.88790039 101.44977539 -107.88085938 100.50585938 C-102.80843055 95.75326843 -97.72735375 91.00998923 -92.64404297 86.26904297 C-88.08925543 82.01989779 -83.54301823 77.7617236 -79 73.5 C-57.54336981 53.37578881 -57.54336981 53.37578881 -47.2980957 43.9934082 C-44.88030372 41.77166409 -42.53958449 39.52318793 -40.2578125 37.16015625 C-38 35 -38 35 -36 35 C-36 34.34 -36 33.68 -36 33 C-34.54663086 31.55029297 -34.54663086 31.55029297 -32.52734375 29.8671875 C-28.0770178 26.08171773 -23.80949486 22.13607756 -19.5625 18.125 C-18.82185303 17.42753662 -18.08120605 16.73007324 -17.31811523 16.01147461 C-12.64233141 11.59434462 -8.04442622 7.1221382 -3.56640625 2.50390625 C-2 1 -2 1 0 0 Z "
    fill="#f8f8f8" transform="translate(1225,141)" />
</svg>