<svg width="25" height="24" viewBox="0 0 25 24" fill="none" xmlns="http://www.w3.org/2000/svg">
<path d="M1.5 20V14H7.5" stroke="white" stroke-width="2" stroke-linecap="round" stroke-linejoin="round"/>
<path d="M23.5 4V10H17.5" stroke="white" stroke-width="2" stroke-linecap="round" stroke-linejoin="round"/>
<path d="M4.01 8.99995C4.51717 7.56674 5.37913 6.28536 6.51547 5.27537C7.6518 4.26539 9.02547 3.55972 10.5083 3.22421C11.9911 2.8887 13.5348 2.93429 14.9952 3.35673C16.4556 3.77916 17.7853 4.56467 18.86 5.63995L23.5 9.99995M1.5 14L6.14 18.36C7.21475 19.4352 8.54437 20.2207 10.0048 20.6432C11.4652 21.0656 13.0089 21.1112 14.4917 20.7757C15.9745 20.4402 17.3482 19.7345 18.4845 18.7245C19.6209 17.7145 20.4828 16.4332 20.99 15" stroke="white" stroke-width="2" stroke-linecap="round" stroke-linejoin="round"/>
</svg>
