<svg width="20" height="22" viewBox="0 0 20 22" fill="none" xmlns="http://www.w3.org/2000/svg">
  <g id="Setting">
    <path id="Path_33946" fill-rule="evenodd" clip-rule="evenodd"
      d="M18.8067 6.62355L18.1842 5.54346C17.6577 4.62954 16.4907 4.31426 15.5755 4.83866V4.83866C15.1399 5.09528 14.6201 5.16809 14.1307 5.04103C13.6413 4.91396 13.2226 4.59746 12.9668 4.16131C12.8023 3.88409 12.7139 3.56833 12.7105 3.24598V3.24598C12.7254 2.72916 12.5304 2.22834 12.17 1.85761C11.8096 1.48688 11.3145 1.2778 10.7975 1.27802H9.5435C9.03697 1.27801 8.55131 1.47985 8.194 1.83888C7.83669 2.19791 7.63717 2.68453 7.63961 3.19106V3.19106C7.6246 4.23686 6.77248 5.07675 5.72657 5.07664C5.40421 5.07329 5.08846 4.98488 4.81123 4.82035V4.82035C3.89606 4.29595 2.72911 4.61123 2.20254 5.52516L1.53435 6.62355C1.00841 7.53633 1.3194 8.70255 2.23 9.23225V9.23225C2.8219 9.57398 3.18653 10.2055 3.18653 10.889C3.18653 11.5725 2.8219 12.204 2.23 12.5457V12.5457C1.32056 13.0719 1.00923 14.2353 1.53435 15.1453V15.1453L2.16593 16.2345C2.41265 16.6797 2.8266 17.0082 3.31619 17.1474C3.80578 17.2865 4.33064 17.2248 4.77462 16.976V16.976C5.21108 16.7213 5.73119 16.6515 6.21934 16.7821C6.70749 16.9128 7.12324 17.233 7.37416 17.6716C7.5387 17.9488 7.62711 18.2646 7.63046 18.5869V18.5869C7.63046 19.6435 8.48696 20.5 9.5435 20.5H10.7975C11.8505 20.5 12.7055 19.6491 12.7105 18.5961V18.5961C12.7081 18.088 12.9089 17.6 13.2682 17.2407C13.6275 16.8814 14.1155 16.6806 14.6236 16.6831C14.9452 16.6917 15.2596 16.7797 15.5389 16.9393V16.9393C16.4517 17.4653 17.6179 17.1543 18.1476 16.2437V16.2437L18.8067 15.1453C19.0618 14.7074 19.1318 14.1859 19.0012 13.6963C18.8706 13.2067 18.5502 12.7893 18.111 12.5366V12.5366C17.6718 12.2839 17.3514 11.8665 17.2208 11.3769C17.0902 10.8872 17.1603 10.3658 17.4154 9.9279C17.5812 9.63827 17.8214 9.39814 18.111 9.23225V9.23225C19.0161 8.70283 19.3264 7.54343 18.8067 6.63271V6.63271V6.62355Z"
      stroke="#45494c" stroke-width="1.5" stroke-linecap="round" stroke-linejoin="round" />
    <circle id="Ellipse_737" cx="10.175" cy="10.889" r="2.63616" stroke="#45494c" stroke-width="1.5"
      stroke-linecap="round" stroke-linejoin="round" />
  </g>
</svg>