<svg width="24" height="24" viewBox="0 0 24 24" fill="none" xmlns="http://www.w3.org/2000/svg">
<g id="Iconly/Light/Setting">
<g id="Setting">
<path id="Path_33946" fill-rule="evenodd" clip-rule="evenodd" d="M20.8074 7.62357L20.185 6.54348C19.6584 5.62956 18.4914 5.31427 17.5763 5.83867V5.83867C17.1406 6.0953 16.6208 6.16811 16.1314 6.04104C15.6421 5.91398 15.2233 5.59747 14.9676 5.16133C14.803 4.8841 14.7146 4.56835 14.7113 4.24599V4.24599C14.7261 3.72918 14.5311 3.22836 14.1708 2.85762C13.8104 2.48689 13.3153 2.27782 12.7982 2.27803H11.5442C11.0377 2.27802 10.552 2.47987 10.1947 2.8389C9.83742 3.19793 9.63791 3.68455 9.64034 4.19107V4.19107C9.62533 5.23688 8.77321 6.07677 7.7273 6.07666C7.40494 6.07331 7.08919 5.9849 6.81197 5.82036V5.82036C5.89679 5.29597 4.72985 5.61125 4.20327 6.52517L3.53508 7.62357C3.00914 8.53635 3.32013 9.70256 4.23073 10.2323V10.2323C4.82263 10.574 5.18726 11.2055 5.18726 11.889C5.18726 12.5725 4.82263 13.204 4.23073 13.5458V13.5458C3.32129 14.0719 3.00996 15.2353 3.53508 16.1453V16.1453L4.16666 17.2346C4.41338 17.6797 4.82734 18.0082 5.31693 18.1474C5.80652 18.2865 6.33137 18.2249 6.77535 17.976V17.976C7.21181 17.7213 7.73192 17.6515 8.22007 17.7822C8.70822 17.9128 9.12397 18.233 9.3749 18.6716C9.53943 18.9488 9.62784 19.2646 9.63119 19.587V19.587C9.63119 20.6435 10.4877 21.5 11.5442 21.5H12.7982C13.8512 21.5 14.7062 20.6491 14.7113 19.5961V19.5961C14.7088 19.088 14.9096 18.6 15.2689 18.2407C15.6282 17.8814 16.1162 17.6806 16.6243 17.6831C16.9459 17.6917 17.2604 17.7797 17.5397 17.9394V17.9394C18.4524 18.4653 19.6186 18.1543 20.1484 17.2437V17.2437L20.8074 16.1453C21.0625 15.7075 21.1325 15.186 21.0019 14.6963C20.8714 14.2067 20.551 13.7893 20.1117 13.5366V13.5366C19.6725 13.2839 19.3521 12.8665 19.2215 12.3769C19.091 11.8873 19.161 11.3658 19.4161 10.9279C19.582 10.6383 19.8221 10.3982 20.1117 10.2323V10.2323C21.0169 9.70285 21.3271 8.54345 20.8074 7.63272V7.63272V7.62357Z" stroke="#53545C" stroke-width="2" stroke-linecap="round" stroke-linejoin="round"/>
<circle id="Ellipse_737" cx="12.1752" cy="11.889" r="2.63616" stroke="#53545C" stroke-width="2" stroke-linecap="round" stroke-linejoin="round"/>
</g>
</g>
</svg>
