<svg width="39" height="40" viewBox="0 0 39 40" fill="none" xmlns="http://www.w3.org/2000/svg">
<g clip-path="url(#clip0_799_895)">
<path d="M19.5882 25.008C22.2429 25.008 24.3949 22.8559 24.3949 20.2013C24.3949 17.5466 22.2429 15.3945 19.5882 15.3945C16.9335 15.3945 14.7815 17.5466 14.7815 20.2013C14.7815 22.8559 16.9335 25.008 19.5882 25.008Z" stroke="black" stroke-width="2" stroke-linecap="round" stroke-linejoin="round"/>
<path d="M31.4448 25.0085C31.2315 25.4918 31.1679 26.0279 31.2621 26.5476C31.3564 27.0674 31.6042 27.547 31.9735 27.9246L32.0697 28.0207C32.3676 28.3183 32.604 28.6718 32.7652 29.0608C32.9265 29.4498 33.0095 29.8668 33.0095 30.2879C33.0095 30.709 32.9265 31.126 32.7652 31.515C32.604 31.904 32.3676 32.2575 32.0697 32.5551C31.7721 32.853 31.4186 33.0894 31.0296 33.2506C30.6406 33.4119 30.2236 33.4949 29.8025 33.4949C29.3814 33.4949 28.9644 33.4119 28.5754 33.2506C28.1864 33.0894 27.8329 32.853 27.5353 32.5551L27.4392 32.4589C27.0616 32.0896 26.582 31.8418 26.0622 31.7475C25.5424 31.6533 25.0064 31.7169 24.5231 31.9302C24.0492 32.1333 23.6451 32.4705 23.3604 32.9004C23.0757 33.3303 22.9229 33.834 22.9209 34.3496V34.622C22.9209 35.4718 22.5833 36.2869 21.9823 36.8879C21.3813 37.4888 20.5663 37.8264 19.7164 37.8264C18.8665 37.8264 18.0514 37.4888 17.4505 36.8879C16.8495 36.2869 16.5119 35.4718 16.5119 34.622V34.4778C16.4995 33.9474 16.3278 33.4331 16.0192 33.0016C15.7106 32.5701 15.2794 32.2415 14.7815 32.0584C14.2982 31.8451 13.7622 31.7815 13.2424 31.8757C12.7226 31.97 12.243 32.2177 11.8654 32.5871L11.7693 32.6833C11.4717 32.9812 11.1182 33.2176 10.7292 33.3788C10.3402 33.5401 9.92322 33.6231 9.5021 33.6231C9.08099 33.6231 8.664 33.5401 8.27498 33.3788C7.88596 33.2176 7.53254 32.9812 7.23493 32.6833C6.93699 32.3856 6.70063 32.0322 6.53937 31.6432C6.37811 31.2542 6.2951 30.8372 6.2951 30.4161C6.2951 29.995 6.37811 29.578 6.53937 29.189C6.70063 28.7999 6.93699 28.4465 7.23493 28.1489L7.33107 28.0528C7.70044 27.6752 7.94823 27.1956 8.04247 26.6758C8.13671 26.156 8.07309 25.62 7.85981 25.1367C7.6567 24.6628 7.31946 24.2586 6.8896 23.974C6.45973 23.6893 5.956 23.5365 5.44042 23.5345H5.16804C4.31816 23.5345 3.50309 23.1968 2.90213 22.5959C2.30118 21.9949 1.96356 21.1799 1.96356 20.33C1.96356 19.4801 2.30118 18.665 2.90213 18.0641C3.50309 17.4631 4.31816 17.1255 5.16804 17.1255H5.31225C5.84258 17.1131 6.35691 16.9414 6.78839 16.6328C7.21986 16.3242 7.54852 15.8929 7.73163 15.3951C7.94491 14.9118 8.00853 14.3757 7.91429 13.856C7.82005 13.3362 7.57226 12.8566 7.20289 12.479L7.10676 12.3829C6.80881 12.0853 6.57245 11.7318 6.41119 11.3428C6.24993 10.9538 6.16692 10.5368 6.16692 10.1157C6.16692 9.69457 6.24993 9.27758 6.41119 8.88857C6.57245 8.49955 6.80881 8.14613 7.10676 7.84852C7.40437 7.55058 7.75778 7.31422 8.1468 7.15296C8.53582 6.99169 8.95281 6.90869 9.37393 6.90869C9.79504 6.90869 10.212 6.99169 10.6011 7.15296C10.9901 7.31422 11.3435 7.55058 11.6411 7.84852L11.7372 7.94465C12.1148 8.31403 12.5945 8.56182 13.1142 8.65606C13.634 8.7503 14.17 8.68668 14.6533 8.47339H14.7815C15.2554 8.27029 15.6595 7.93305 15.9442 7.50318C16.2289 7.07332 16.3817 6.56959 16.3837 6.05401V5.78163C16.3837 4.93175 16.7213 4.11668 17.3223 3.51572C17.9233 2.91476 18.7383 2.57715 19.5882 2.57715C20.4381 2.57715 21.2532 2.91476 21.8541 3.51572C22.4551 4.11668 22.7927 4.93175 22.7927 5.78163V5.92583C22.7947 6.44141 22.9475 6.94514 23.2322 7.375C23.5169 7.80487 23.921 8.14211 24.3949 8.34522C24.8782 8.5585 25.4143 8.62212 25.934 8.52788C26.4538 8.43364 26.9334 8.18585 27.311 7.81648L27.4071 7.72034C27.7048 7.4224 28.0582 7.18604 28.4472 7.02478C28.8362 6.86351 29.2532 6.78051 29.6743 6.78051C30.0954 6.78051 30.5124 6.86351 30.9014 7.02478C31.2905 7.18604 31.6439 7.4224 31.9415 7.72034C32.2394 8.01795 32.4758 8.37137 32.6371 8.76039C32.7983 9.1494 32.8813 9.56639 32.8813 9.98751C32.8813 10.4086 32.7983 10.8256 32.6371 11.2146C32.4758 11.6037 32.2394 11.9571 31.9415 12.2547L31.8454 12.3508C31.476 12.7284 31.2282 13.208 31.134 13.7278C31.0397 14.2476 31.1033 14.7836 31.3166 15.2669V15.3951C31.5197 15.869 31.857 16.2731 32.2868 16.5578C32.7167 16.8425 33.2204 16.9953 33.736 16.9973H34.0084C34.8583 16.9973 35.6733 17.3349 36.2743 17.9359C36.8752 18.5368 37.2129 19.3519 37.2129 20.2018C37.2129 21.0517 36.8752 21.8668 36.2743 22.4677C35.6733 23.0687 34.8583 23.4063 34.0084 23.4063H33.8642C33.3486 23.4083 32.8449 23.5611 32.415 23.8458C31.9851 24.1305 31.6479 24.5346 31.4448 25.0085V25.0085Z" stroke="black" stroke-width="2" stroke-linecap="round" stroke-linejoin="round"/>
</g>
<defs>
<clipPath id="clip0_799_895">
<rect width="38.4538" height="38.4538" fill="white" transform="translate(0.361328 0.974609)"/>
</clipPath>
</defs>
</svg>
