<svg xmlns="http://www.w3.org/2000/svg" width="16" height="16" viewBox="0 0 16 16" fill="none">
  <path d="M14 5.16675H2C1.72667 5.16675 1.5 4.94008 1.5 4.66675C1.5 4.39341 1.72667 4.16675 2 4.16675H14C14.2733 4.16675 14.5 4.39341 14.5 4.66675C14.5 4.94008 14.2733 5.16675 14 5.16675Z" fill="#00092E"/>
  <path d="M12 8.5H4C3.72667 8.5 3.5 8.27333 3.5 8C3.5 7.72667 3.72667 7.5 4 7.5H12C12.2733 7.5 12.5 7.72667 12.5 8C12.5 8.27333 12.2733 8.5 12 8.5Z" fill="#00092E"/>
  <path d="M9.33329 11.8333H6.66663C6.39329 11.8333 6.16663 11.6066 6.16663 11.3333C6.16663 11.0599 6.39329 10.8333 6.66663 10.8333H9.33329C9.60663 10.8333 9.83329 11.0599 9.83329 11.3333C9.83329 11.6066 9.60663 11.8333 9.33329 11.8333Z" fill="#00092E"/>
</svg>