<svg width="39" height="40" viewBox="0 0 39 40" fill="none" xmlns="http://www.w3.org/2000/svg">
<g clip-path="url(#clip0_799_6281)">
<path d="M25.9972 34.6213V31.4168C25.9972 29.717 25.322 28.0869 24.1201 26.885C22.9182 25.683 21.288 25.0078 19.5882 25.0078H8.37256C6.67279 25.0078 5.04265 25.683 3.84073 26.885C2.63882 28.0869 1.96359 29.717 1.96359 31.4168V34.6213" stroke="black" stroke-width="2" stroke-linecap="round" stroke-linejoin="round"/>
<path d="M27.5995 18.599L30.8039 21.8035L37.2129 15.3945" stroke="black" stroke-width="2" stroke-linecap="round" stroke-linejoin="round"/>
<path d="M13.9804 18.5992C17.52 18.5992 20.3894 15.7298 20.3894 12.1902C20.3894 8.65064 17.52 5.78125 13.9804 5.78125C10.4408 5.78125 7.57144 8.65064 7.57144 12.1902C7.57144 15.7298 10.4408 18.5992 13.9804 18.5992Z" stroke="black" stroke-width="2" stroke-linecap="round" stroke-linejoin="round"/>
</g>
<defs>
<clipPath id="clip0_799_6281">
<rect width="38.4538" height="38.4538" fill="white" transform="translate(0.361359 0.974609)"/>
</clipPath>
</defs>
</svg>
